<svg width="20" height="20" viewBox="0 0 20 20" fill="none" xmlns="http://www.w3.org/2000/svg">
<path d="M12.5 5.00033C12.5 6.84127 11.0076 8.33366 9.16667 8.33366C7.32572 8.33366 5.83333 6.84127 5.83333 5.00033C5.83333 3.15938 7.32572 1.66699 9.16667 1.66699C11.0076 1.66699 12.5 3.15938 12.5 5.00033Z" fill="white"/>
<path d="M15.8333 14.5837C15.8333 16.6547 15.8333 18.3337 9.16667 18.3337C2.5 18.3337 2.5 16.6547 2.5 14.5837C2.5 12.5126 5.48477 10.8337 9.16667 10.8337C12.8486 10.8337 15.8333 12.5126 15.8333 14.5837Z" fill="white"/>
<path d="M17.9671 7.49889C18.1965 7.2409 18.1732 6.84585 17.9152 6.61653C17.6572 6.3872 17.2622 6.41044 17.0329 6.66843L15.2284 8.69841L14.5848 8.1191C14.3282 7.88819 13.933 7.90899 13.7021 8.16556C13.4712 8.42212 13.492 8.81731 13.7486 9.04822L14.8597 10.0482C14.9834 10.1596 15.1464 10.217 15.3126 10.2077C15.4787 10.1984 15.6343 10.1233 15.7449 9.99889L17.9671 7.49889Z" fill="white"/>
</svg>
