<svg width="32" height="32" viewBox="0 0 32 32" fill="none" xmlns="http://www.w3.org/2000/svg">
<path fill-rule="evenodd" clip-rule="evenodd" d="M10.4574 5.06948C13.1624 3.4676 14.5149 2.66666 16 2.66666C17.4851 2.66666 18.8376 3.4676 21.5426 5.06948L22.4574 5.61127C25.1624 7.21315 26.5149 8.01409 27.2574 9.33333C28 10.6526 28 12.2544 28 15.4582V16.5418C28 19.7455 28 21.3474 27.2574 22.6667C26.5149 23.9859 25.1624 24.7868 22.4574 26.3887L21.5426 26.9305C18.8376 28.5324 17.4851 29.3333 16 29.3333C14.5149 29.3333 13.1624 28.5324 10.4574 26.9305L9.54256 26.3887C6.8376 24.7868 5.48512 23.9859 4.74256 22.6667C4 21.3474 4 19.7455 4 16.5418V15.4582C4 12.2544 4 10.6526 4.74256 9.33333C5.48512 8.01409 6.8376 7.21315 9.54256 5.61127L10.4574 5.06948ZM17.3333 21.3333C17.3333 22.0697 16.7364 22.6667 16 22.6667C15.2636 22.6667 14.6667 22.0697 14.6667 21.3333C14.6667 20.597 15.2636 20 16 20C16.7364 20 17.3333 20.597 17.3333 21.3333ZM16 8.33333C16.5523 8.33333 17 8.78105 17 9.33333V17.3333C17 17.8856 16.5523 18.3333 16 18.3333C15.4477 18.3333 15 17.8856 15 17.3333V9.33333C15 8.78105 15.4477 8.33333 16 8.33333Z" fill="#DC3545"/>
</svg>
