<svg width="32" height="32" viewBox="0 0 32 32" fill="none" xmlns="http://www.w3.org/2000/svg">
<path fill-rule="evenodd" clip-rule="evenodd" d="M7.08261 14.3487C10.9738 7.44955 12.9193 4 16.0003 4C19.0813 4 21.0269 7.44955 24.918 14.3486L25.4029 15.2084C28.6364 20.9415 30.2532 23.808 28.792 25.904C27.3308 28 23.7156 28 16.4852 28H15.5154C8.28507 28 4.66989 28 3.20867 25.904C1.74745 23.808 3.36421 20.9415 6.59773 15.2084L7.08261 14.3487ZM16.0003 9.66667C16.5526 9.66667 17.0003 10.1144 17.0003 10.6667V17.3333C17.0003 17.8856 16.5526 18.3333 16.0003 18.3333C15.448 18.3333 15.0003 17.8856 15.0003 17.3333V10.6667C15.0003 10.1144 15.448 9.66667 16.0003 9.66667ZM16.0003 22.6667C16.7367 22.6667 17.3337 22.0697 17.3337 21.3333C17.3337 20.597 16.7367 20 16.0003 20C15.2639 20 14.667 20.597 14.667 21.3333C14.667 22.0697 15.2639 22.6667 16.0003 22.6667Z" fill="#D97604"/>
</svg>
