<svg width="26" height="26" viewBox="0 0 26 26" fill="none" xmlns="http://www.w3.org/2000/svg">
<path d="M22.6866 8.8712C23.3151 9.49223 23.5854 10.2742 23.7117 11.2029C23.8335 12.0974 23.8334 13.2347 23.8334 14.6457V14.7589C23.8334 16.17 23.8335 17.3073 23.7117 18.2018C23.5854 19.1305 23.3151 19.9124 22.6866 20.5334C22.0581 21.1545 21.2667 21.4216 20.3269 21.5464C19.4216 21.6667 18.2706 21.6667 16.8426 21.6667H11.5073C10.0793 21.6667 8.92828 21.6667 8.02303 21.5464C7.08317 21.4216 6.29183 21.1545 5.66333 20.5334C5.28204 20.1567 5.03255 19.7207 4.86707 19.2286C5.81115 19.3455 6.97913 19.3454 8.3286 19.3454H13.7556C15.144 19.3454 16.3404 19.3455 17.2984 19.2182C18.3251 19.0818 19.3092 18.7742 20.1075 17.9855C20.9057 17.1967 21.217 16.2243 21.355 15.2098C21.4838 14.2631 21.4838 13.081 21.4837 11.7091V11.5053C21.4838 10.1715 21.4838 9.01719 21.3655 8.0842C21.8637 8.24771 22.3051 8.49429 22.6866 8.8712Z" fill="#9A27FF"/>
<path d="M11.0421 9.80162C10.0329 9.80162 9.21482 10.61 9.21482 11.6072C9.21482 12.6044 10.0329 13.4128 11.0421 13.4128C12.0513 13.4128 12.8694 12.6044 12.8694 11.6072C12.8694 10.61 12.0513 9.80162 11.0421 9.80162Z" fill="#9A27FF"/>
<path fill-rule="evenodd" clip-rule="evenodd" d="M3.08423 6.32325C2.16675 7.22983 2.16675 8.68895 2.16675 11.6072C2.16675 14.5254 2.16675 15.9846 3.08423 16.8911C4.00171 17.7977 5.47837 17.7977 8.4317 17.7977H13.6525C16.6058 17.7977 18.0825 17.7977 19 16.8911C19.9174 15.9846 19.9174 14.5254 19.9174 11.6072C19.9174 8.68895 19.9174 7.22983 19 6.32325C18.0825 5.41666 16.6058 5.41666 13.6525 5.41666H8.4317C5.47837 5.41666 4.00171 5.41666 3.08423 6.32325ZM7.64858 11.6072C7.64858 9.75527 9.16791 8.25399 11.0421 8.25399C12.9163 8.25399 14.4356 9.75527 14.4356 11.6072C14.4356 13.4591 12.9163 14.9604 11.0421 14.9604C9.16791 14.9604 7.64858 13.4591 7.64858 11.6072ZM16.785 14.4445C16.3525 14.4445 16.0018 14.0981 16.0018 13.6707V9.54368C16.0018 9.11632 16.3525 8.76987 16.785 8.76987C17.2175 8.76987 17.5681 9.11632 17.5681 9.54368V13.6707C17.5681 14.0981 17.2175 14.4445 16.785 14.4445ZM4.5161 13.6707C4.5161 14.0981 4.86672 14.4445 5.29922 14.4445C5.73173 14.4445 6.08234 14.0981 6.08234 13.6707L6.08234 9.54368C6.08234 9.11632 5.73173 8.76987 5.29922 8.76987C4.86672 8.76987 4.5161 9.11632 4.5161 9.54368L4.5161 13.6707Z" fill="#9A27FF"/>
</svg>
