<svg width="26" height="26" viewBox="0 0 26 26" fill="none" xmlns="http://www.w3.org/2000/svg">
<path d="M11.4454 2.24791C11.0186 2.45266 10.6275 2.78633 10.0804 3.25325L9.99482 3.32475C9.52248 3.75052 8.91818 4.00103 8.28315 4.03433L8.17265 4.043C7.45548 4.10041 6.94307 4.1405 6.49673 4.29866C5.98946 4.47788 5.52869 4.76828 5.14818 5.14861C4.76766 5.52894 4.47703 5.98956 4.29757 6.49675C4.14048 6.94308 4.1004 7.4555 4.04298 8.17266L4.03432 8.28316C4.00102 8.9182 3.7505 9.5225 3.32473 9.99483L3.25323 10.0793C2.78632 10.6275 2.45157 11.0186 2.2479 11.4454C2.01607 11.9309 1.89575 12.462 1.89575 13C1.89575 13.538 2.01607 14.0691 2.2479 14.5546C2.45265 14.9814 2.78632 15.3725 3.25323 15.9196L3.32473 16.0052C3.7689 16.5252 3.97907 17.0224 4.03432 17.7168L4.04298 17.8273C4.1004 18.5445 4.14048 19.0569 4.29865 19.5032C4.47786 20.0105 4.76827 20.4713 5.1486 20.8518C5.52893 21.2323 5.98955 21.523 6.49673 21.7024C6.94307 21.8595 7.45548 21.8996 8.17265 21.957L8.28315 21.9657C8.96457 22.0198 9.46398 22.2235 9.99482 22.6752L10.0804 22.7467C10.6275 23.2137 11.0186 23.5484 11.4454 23.7521C11.9309 23.9839 12.462 24.1042 13 24.1042C13.538 24.1042 14.0691 23.9839 14.5546 23.7521C14.9814 23.5473 15.3725 23.2137 15.9196 22.7467L16.0051 22.6752C16.5251 22.2311 17.0224 22.0209 17.7168 21.9657L17.8273 21.957C18.5445 21.8996 19.0569 21.8595 19.5032 21.7013C20.0105 21.5221 20.4713 21.2317 20.8518 20.8514C21.2323 20.4711 21.5229 20.0104 21.7024 19.5032C21.8595 19.0569 21.8996 18.5445 21.957 17.8273L21.9656 17.7168C22.0198 17.0354 22.2235 16.536 22.6752 16.0052L22.7467 15.9196C23.2136 15.3725 23.5484 14.9814 23.7521 14.5546C23.9839 14.0691 24.1042 13.538 24.1042 13C24.1042 12.462 23.9839 11.9309 23.7521 11.4454C23.5473 11.0186 23.2136 10.6275 22.7467 10.0804L22.6752 9.99483C22.2495 9.5225 21.9989 8.9182 21.9656 8.28316L21.957 8.17266C21.8996 7.4555 21.8595 6.94308 21.7013 6.49675C21.5221 5.98948 21.2317 5.52871 20.8514 5.14819C20.471 4.76768 20.0104 4.47704 19.5032 4.29758C19.0569 4.1405 18.5445 4.10041 17.8273 4.043L17.7168 4.03433C17.0818 4.00103 16.4775 3.75052 16.0051 3.32475L15.9196 3.25325C15.3725 2.78633 14.9814 2.45158 14.5546 2.24791C14.0691 2.01609 13.538 1.89577 13 1.89577C12.462 1.89577 11.9309 2.01609 11.4454 2.24791ZM8.93748 8.125C8.93748 7.90951 9.02308 7.70285 9.17546 7.55047C9.32783 7.3981 9.53449 7.3125 9.74998 7.3125H16.25C16.4655 7.3125 16.6721 7.3981 16.8245 7.55047C16.9769 7.70285 17.0625 7.90951 17.0625 8.125C17.0625 8.34049 16.9769 8.54715 16.8245 8.69952C16.6721 8.85189 16.4655 8.9375 16.25 8.9375H14.3065C14.5643 9.36325 14.7344 9.83666 14.8221 10.322H16.25C16.4655 10.322 16.6721 10.4076 16.8245 10.56C16.9769 10.7123 17.0625 10.919 17.0625 11.1345C17.0625 11.35 16.9769 11.5566 16.8245 11.709C16.6721 11.8614 16.4655 11.947 16.25 11.947H14.8221C14.7114 12.5903 14.443 13.1963 14.0411 13.7107C13.7517 14.0749 13.3882 14.3734 12.9747 14.5865C12.5612 14.7997 12.1071 14.9224 11.6426 14.9467L14.9413 18.3972C15.0834 18.5541 15.1586 18.7603 15.1509 18.9718C15.1433 19.1834 15.0534 19.3836 14.9003 19.5298C14.7473 19.6761 14.5432 19.7568 14.3316 19.7549C14.1199 19.753 13.9173 19.6685 13.767 19.5195L9.16282 14.7052C9.05295 14.5901 8.97927 14.4454 8.95091 14.2888C8.92255 14.1323 8.94076 13.9709 9.00328 13.8246C9.06581 13.6784 9.16989 13.5537 9.30263 13.466C9.43536 13.3784 9.59091 13.3316 9.74998 13.3315H11.375C12.025 13.3315 12.4713 13.0715 12.7725 12.6956C12.9472 12.4733 13.0768 12.219 13.1538 11.947H9.74998C9.53449 11.947 9.32783 11.8614 9.17546 11.709C9.02308 11.5566 8.93748 11.35 8.93748 11.1345C8.93748 10.919 9.02308 10.7123 9.17546 10.56C9.32783 10.4076 9.53449 10.322 9.74998 10.322H13.1538C13.0768 10.05 12.9472 9.79567 12.7725 9.57341C12.4713 9.1975 12.025 8.9375 11.375 8.9375H9.74998C9.53449 8.9375 9.32783 8.85189 9.17546 8.69952C9.02308 8.54715 8.93748 8.34049 8.93748 8.125Z" fill="#F2B40C"/>
</svg>
