<svg width="26" height="26" viewBox="0 0 26 26" fill="none" xmlns="http://www.w3.org/2000/svg">
<path fill-rule="evenodd" clip-rule="evenodd" d="M22.1115 10.6823C22.0523 10.6785 21.9879 10.6785 21.9211 10.6786L21.9044 10.6786H19.2851C17.1261 10.6786 15.2787 12.3914 15.2787 14.625C15.2787 16.8586 17.1261 18.5714 19.2851 18.5714H21.9044L21.9211 18.5714C21.9879 18.5715 22.0523 18.5715 22.1115 18.5677C22.9884 18.5119 23.764 17.8202 23.8292 16.8542C23.8335 16.7908 23.8334 16.7225 23.8334 16.6592L23.8334 16.6421V12.6079L23.8334 12.5908C23.8334 12.5275 23.8335 12.4592 23.8292 12.3958C23.764 11.4298 22.9884 10.7381 22.1115 10.6823ZM19.0528 15.6774C19.6087 15.6774 20.0593 15.2062 20.0593 14.625C20.0593 14.0438 19.6087 13.5726 19.0528 13.5726C18.497 13.5726 18.0464 14.0438 18.0464 14.625C18.0464 15.2062 18.497 15.6774 19.0528 15.6774Z" fill="#F2B40C"/>
<path fill-rule="evenodd" clip-rule="evenodd" d="M21.9204 20.15C22.0761 20.1459 22.1939 20.2913 22.1517 20.4423C21.942 21.1921 21.6094 21.8311 21.0755 22.3692C20.2941 23.1568 19.3032 23.5063 18.079 23.6722C16.8894 23.8334 15.3695 23.8333 13.4506 23.8333H11.2444C9.32544 23.8333 7.8055 23.8334 6.61596 23.6722C5.39175 23.5063 4.40088 23.1568 3.61945 22.3692C2.83803 21.5816 2.49124 20.583 2.32665 19.3492C2.16672 18.1503 2.16673 16.6184 2.16675 14.6844V14.5656C2.16673 12.6316 2.16672 11.0997 2.32665 9.90084C2.49124 8.667 2.83803 7.66835 3.61945 6.88078C4.40088 6.09322 5.39175 5.74371 6.61596 5.57782C7.8055 5.41663 9.32544 5.41665 11.2444 5.41666L13.4506 5.41666C15.3695 5.41665 16.8894 5.41663 18.079 5.57782C19.3032 5.74371 20.2941 6.09322 21.0755 6.88078C21.6094 7.41884 21.942 8.05787 22.1517 8.80763C22.1939 8.95872 22.0761 9.10407 21.9204 9.1L19.285 9.10001C16.323 9.10001 13.7123 11.4583 13.7123 14.625C13.7123 17.7917 16.323 20.15 19.285 20.15L21.9204 20.15ZM6.08241 9.62619C5.6499 9.62619 5.29928 9.97956 5.29928 10.4155C5.29928 10.8514 5.6499 11.2048 6.08241 11.2048H10.2591C10.6916 11.2048 11.0423 10.8514 11.0423 10.4155C11.0423 9.97956 10.6916 9.62619 10.2591 9.62619H6.08241Z" fill="#F2B40C"/>
<path d="M8.42482 4.35975L10.5469 2.79636C11.6865 1.95676 13.2304 1.95676 14.37 2.79636L16.5032 4.36797C15.6112 4.33328 14.6152 4.33331 13.5232 4.33333H11.1718C10.1739 4.33331 9.25619 4.33329 8.42482 4.35975Z" fill="#F2B40C"/>
</svg>
