<svg width="135" height="46" viewBox="0 0 135 46" fill="none" xmlns="http://www.w3.org/2000/svg">
<rect x="0.5" y="0.5" width="134" height="45" rx="4.5" fill="#287DE8"/>
<rect x="0.5" y="0.5" width="134" height="45" rx="4.5" stroke="#287DE8"/>
<path d="M29.5 17.9998C29.5 19.8408 28.0076 21.3332 26.1667 21.3332C24.3257 21.3332 22.8333 19.8408 22.8333 17.9998C22.8333 16.1589 24.3257 14.6665 26.1667 14.6665C28.0076 14.6665 29.5 16.1589 29.5 17.9998Z" fill="white"/>
<path d="M32.8333 27.5832C32.8333 29.6542 32.8333 31.3332 26.1667 31.3332C19.5 31.3332 19.5 29.6542 19.5 27.5832C19.5 25.5121 22.4848 23.8332 26.1667 23.8332C29.8486 23.8332 32.8333 25.5121 32.8333 27.5832Z" fill="white"/>
<path d="M34.9671 20.4984C35.1965 20.2404 35.1732 19.8454 34.9152 19.616C34.6572 19.3867 34.2622 19.41 34.0329 19.6679L32.2284 21.6979L31.5848 21.1186C31.3282 20.8877 30.933 20.9085 30.7021 21.1651C30.4712 21.4216 30.492 21.8168 30.7486 22.0477L31.8597 23.0477C31.9834 23.1591 32.1464 23.2165 32.3126 23.2072C32.4787 23.1979 32.6343 23.1228 32.7449 22.9984L34.9671 20.4984Z" fill="white"/>
<path d="M45.176 30L49.448 18.08H51.304L55.576 30H53.896L52.92 27.2H47.832L46.856 30H45.176ZM48.328 25.76H52.424L50.152 19.216H50.6L48.328 25.76ZM60.09 30.192C59.226 30.192 58.474 29.9787 57.834 29.552C57.194 29.1253 56.7407 28.5493 56.474 27.824L57.658 27.248C57.9033 27.76 58.2393 28.1653 58.666 28.464C59.0927 28.7627 59.5673 28.912 60.09 28.912C60.5593 28.912 60.9487 28.8 61.258 28.576C61.5673 28.352 61.722 28.0587 61.722 27.696C61.722 27.44 61.6473 27.2373 61.498 27.088C61.3593 26.928 61.1887 26.8053 60.986 26.72C60.7833 26.624 60.5967 26.5547 60.426 26.512L59.13 26.144C58.3513 25.92 57.7807 25.6 57.418 25.184C57.066 24.768 56.89 24.2827 56.89 23.728C56.89 23.216 57.018 22.7733 57.274 22.4C57.5407 22.016 57.898 21.7173 58.346 21.504C58.8047 21.2907 59.3167 21.184 59.882 21.184C60.6393 21.184 61.3167 21.376 61.914 21.76C62.522 22.144 62.954 22.6827 63.21 23.376L61.994 23.936C61.802 23.488 61.514 23.136 61.13 22.88C60.746 22.6133 60.314 22.48 59.834 22.48C59.3967 22.48 59.05 22.592 58.794 22.816C58.538 23.0293 58.41 23.3013 58.41 23.632C58.41 23.8773 58.474 24.08 58.602 24.24C58.73 24.3893 58.8847 24.5067 59.066 24.592C59.2473 24.6667 59.4233 24.7307 59.594 24.784L61.002 25.2C61.706 25.4027 62.25 25.7173 62.634 26.144C63.0287 26.5707 63.226 27.0827 63.226 27.68C63.226 28.16 63.0927 28.592 62.826 28.976C62.5593 29.36 62.1913 29.6587 61.722 29.872C61.2527 30.0853 60.7087 30.192 60.09 30.192ZM68.3619 30.192C67.4979 30.192 66.7459 29.9787 66.1059 29.552C65.4659 29.1253 65.0125 28.5493 64.7459 27.824L65.9299 27.248C66.1752 27.76 66.5112 28.1653 66.9379 28.464C67.3645 28.7627 67.8392 28.912 68.3619 28.912C68.8312 28.912 69.2205 28.8 69.5299 28.576C69.8392 28.352 69.9939 28.0587 69.9939 27.696C69.9939 27.44 69.9192 27.2373 69.7699 27.088C69.6312 26.928 69.4605 26.8053 69.2579 26.72C69.0552 26.624 68.8685 26.5547 68.6979 26.512L67.4019 26.144C66.6232 25.92 66.0525 25.6 65.6899 25.184C65.3379 24.768 65.1619 24.2827 65.1619 23.728C65.1619 23.216 65.2899 22.7733 65.5459 22.4C65.8125 22.016 66.1699 21.7173 66.6179 21.504C67.0765 21.2907 67.5885 21.184 68.1539 21.184C68.9112 21.184 69.5885 21.376 70.1859 21.76C70.7939 22.144 71.2259 22.6827 71.4819 23.376L70.2659 23.936C70.0739 23.488 69.7859 23.136 69.4019 22.88C69.0179 22.6133 68.5859 22.48 68.1059 22.48C67.6685 22.48 67.3219 22.592 67.0659 22.816C66.8099 23.0293 66.6819 23.3013 66.6819 23.632C66.6819 23.8773 66.7459 24.08 66.8739 24.24C67.0019 24.3893 67.1565 24.5067 67.3379 24.592C67.5192 24.6667 67.6952 24.7307 67.8659 24.784L69.2739 25.2C69.9779 25.4027 70.5219 25.7173 70.9059 26.144C71.3005 26.5707 71.4979 27.0827 71.4979 27.68C71.4979 28.16 71.3645 28.592 71.0979 28.976C70.8312 29.36 70.4632 29.6587 69.9939 29.872C69.5245 30.0853 68.9805 30.192 68.3619 30.192ZM73.5457 30V21.376H75.0337V30H73.5457ZM73.5457 20V18.08H75.0337V20H73.5457ZM81.5546 33.52C80.9466 33.52 80.3813 33.424 79.8586 33.232C79.3466 33.04 78.904 32.7733 78.5306 32.432C78.168 32.1013 77.8906 31.712 77.6986 31.264L79.0906 30.624C79.24 31.0293 79.5226 31.3707 79.9386 31.648C80.3653 31.936 80.8986 32.08 81.5386 32.08C82.0293 32.08 82.472 31.984 82.8666 31.792C83.272 31.6107 83.592 31.3333 83.8266 30.96C84.0613 30.5973 84.1786 30.1547 84.1786 29.632V27.696L84.4506 27.984C84.152 28.5707 83.72 29.0187 83.1546 29.328C82.6 29.6373 81.9866 29.792 81.3146 29.792C80.504 29.792 79.7786 29.6053 79.1386 29.232C78.4986 28.848 77.9973 28.3307 77.6346 27.68C77.272 27.0187 77.0906 26.288 77.0906 25.488C77.0906 24.6773 77.272 23.9467 77.6346 23.296C77.9973 22.6453 78.4933 22.1333 79.1226 21.76C79.7626 21.376 80.488 21.184 81.2986 21.184C81.9706 21.184 82.5786 21.3387 83.1226 21.648C83.6773 21.9467 84.12 22.3627 84.4506 22.896L84.2266 23.296V21.376H85.6826V29.632C85.6826 30.3787 85.5066 31.0453 85.1546 31.632C84.8026 32.2187 84.312 32.6773 83.6826 33.008C83.064 33.3493 82.3546 33.52 81.5546 33.52ZM81.4426 28.352C81.9546 28.352 82.4133 28.224 82.8186 27.968C83.2346 27.712 83.5653 27.3707 83.8106 26.944C84.056 26.5067 84.1786 26.0213 84.1786 25.488C84.1786 24.9653 84.056 24.4853 83.8106 24.048C83.5653 23.6107 83.2346 23.264 82.8186 23.008C82.4133 22.752 81.9546 22.624 81.4426 22.624C80.92 22.624 80.4453 22.752 80.0186 23.008C79.592 23.264 79.256 23.6107 79.0106 24.048C78.776 24.4747 78.6586 24.9547 78.6586 25.488C78.6586 26.0213 78.776 26.5067 79.0106 26.944C79.256 27.3707 79.5866 27.712 80.0026 27.968C80.4293 28.224 80.9093 28.352 81.4426 28.352ZM88.0895 30V21.376H89.5455V23.056L89.3055 22.912C89.5188 22.368 89.8602 21.9467 90.3295 21.648C90.8095 21.3387 91.3695 21.184 92.0095 21.184C92.6282 21.184 93.1775 21.3227 93.6575 21.6C94.1482 21.8773 94.5322 22.2613 94.8095 22.752C95.0975 23.2427 95.2415 23.7973 95.2415 24.416V30H93.7375V24.896C93.7375 24.416 93.6522 24.0107 93.4815 23.68C93.3108 23.3493 93.0655 23.0933 92.7455 22.912C92.4362 22.72 92.0788 22.624 91.6735 22.624C91.2682 22.624 90.9055 22.72 90.5855 22.912C90.2762 23.0933 90.0308 23.3547 89.8495 23.696C89.6682 24.0267 89.5775 24.4267 89.5775 24.896V30H88.0895ZM101.439 30.192C100.607 30.192 99.8654 29.9947 99.2147 29.6C98.5641 29.2053 98.0521 28.6667 97.6787 27.984C97.3054 27.2907 97.1187 26.5173 97.1187 25.664C97.1187 24.8 97.3001 24.032 97.6627 23.36C98.0361 22.688 98.5374 22.16 99.1667 21.776C99.8067 21.3813 100.521 21.184 101.311 21.184C101.951 21.184 102.516 21.3013 103.007 21.536C103.508 21.76 103.929 22.0693 104.271 22.464C104.623 22.848 104.889 23.2907 105.071 23.792C105.263 24.2827 105.359 24.7947 105.359 25.328C105.359 25.4453 105.348 25.5787 105.327 25.728C105.316 25.8667 105.3 26 105.279 26.128H98.2067V24.848H104.415L103.711 25.424C103.807 24.8693 103.753 24.3733 103.551 23.936C103.348 23.4987 103.049 23.152 102.655 22.896C102.26 22.64 101.812 22.512 101.311 22.512C100.809 22.512 100.351 22.64 99.9347 22.896C99.5187 23.152 99.1934 23.52 98.9587 24C98.7347 24.4693 98.6441 25.0293 98.6867 25.68C98.6441 26.3093 98.7401 26.864 98.9747 27.344C99.2201 27.8133 99.5614 28.1813 99.9987 28.448C100.447 28.704 100.932 28.832 101.455 28.832C102.031 28.832 102.516 28.6987 102.911 28.432C103.305 28.1653 103.625 27.824 103.871 27.408L105.119 28.048C104.948 28.4427 104.681 28.8053 104.319 29.136C103.967 29.456 103.545 29.712 103.055 29.904C102.575 30.096 102.036 30.192 101.439 30.192ZM111.319 30.192C110.508 30.192 109.778 29.9947 109.127 29.6C108.487 29.2053 107.98 28.6667 107.607 27.984C107.234 27.3013 107.047 26.5387 107.047 25.696C107.047 24.832 107.234 24.064 107.607 23.392C107.98 22.7093 108.487 22.1707 109.127 21.776C109.778 21.3813 110.508 21.184 111.319 21.184C112.034 21.184 112.668 21.3387 113.223 21.648C113.778 21.9467 114.215 22.352 114.535 22.864L114.295 23.232V17.888H115.799V30H114.343V28.16L114.535 28.416C114.236 28.9813 113.799 29.4187 113.223 29.728C112.658 30.0373 112.023 30.192 111.319 30.192ZM111.447 28.752C111.991 28.752 112.476 28.6187 112.903 28.352C113.33 28.0853 113.666 27.7227 113.911 27.264C114.167 26.7947 114.295 26.272 114.295 25.696C114.295 25.1093 114.167 24.5867 113.911 24.128C113.666 23.6587 113.33 23.2907 112.903 23.024C112.476 22.7573 111.991 22.624 111.447 22.624C110.914 22.624 110.428 22.7627 109.991 23.04C109.564 23.3067 109.228 23.6693 108.983 24.128C108.738 24.576 108.615 25.0987 108.615 25.696C108.615 26.272 108.738 26.7947 108.983 27.264C109.228 27.7227 109.564 28.0853 109.991 28.352C110.418 28.6187 110.903 28.752 111.447 28.752Z" fill="white"/>
</svg>
