<svg width="114" height="46" viewBox="0 0 114 46" fill="none" xmlns="http://www.w3.org/2000/svg">
<rect x="0.5" y="0.5" width="113" height="45" rx="4.5" stroke="#287DE8"/>
<circle cx="25.3333" cy="17.9998" r="3.33333" fill="#287DE8"/>
<path d="M31.9998 27.5835C31.9998 29.6546 31.9998 31.3335 25.3332 31.3335C18.6665 31.3335 18.6665 29.6546 18.6665 27.5835C18.6665 25.5124 21.6513 23.8335 25.3332 23.8335C29.0151 23.8335 31.9998 25.5124 31.9998 27.5835Z" fill="#287DE8"/>
<path d="M34.4998 21.3332H32.8332M32.8332 21.3332H31.1665M32.8332 21.3332L32.8332 19.6665M32.8332 21.3332L32.8332 22.9998" stroke="#287DE8" stroke-width="1.5" stroke-linecap="round"/>
<path d="M45.176 30L49.448 18.08H51.304L55.576 30H53.896L52.92 27.2H47.832L46.856 30H45.176ZM48.328 25.76H52.424L50.152 19.216H50.6L48.328 25.76ZM60.09 30.192C59.226 30.192 58.474 29.9787 57.834 29.552C57.194 29.1253 56.7407 28.5493 56.474 27.824L57.658 27.248C57.9033 27.76 58.2393 28.1653 58.666 28.464C59.0927 28.7627 59.5673 28.912 60.09 28.912C60.5593 28.912 60.9487 28.8 61.258 28.576C61.5673 28.352 61.722 28.0587 61.722 27.696C61.722 27.44 61.6473 27.2373 61.498 27.088C61.3593 26.928 61.1887 26.8053 60.986 26.72C60.7833 26.624 60.5967 26.5547 60.426 26.512L59.13 26.144C58.3513 25.92 57.7807 25.6 57.418 25.184C57.066 24.768 56.89 24.2827 56.89 23.728C56.89 23.216 57.018 22.7733 57.274 22.4C57.5407 22.016 57.898 21.7173 58.346 21.504C58.8047 21.2907 59.3167 21.184 59.882 21.184C60.6393 21.184 61.3167 21.376 61.914 21.76C62.522 22.144 62.954 22.6827 63.21 23.376L61.994 23.936C61.802 23.488 61.514 23.136 61.13 22.88C60.746 22.6133 60.314 22.48 59.834 22.48C59.3967 22.48 59.05 22.592 58.794 22.816C58.538 23.0293 58.41 23.3013 58.41 23.632C58.41 23.8773 58.474 24.08 58.602 24.24C58.73 24.3893 58.8847 24.5067 59.066 24.592C59.2473 24.6667 59.4233 24.7307 59.594 24.784L61.002 25.2C61.706 25.4027 62.25 25.7173 62.634 26.144C63.0287 26.5707 63.226 27.0827 63.226 27.68C63.226 28.16 63.0927 28.592 62.826 28.976C62.5593 29.36 62.1913 29.6587 61.722 29.872C61.2527 30.0853 60.7087 30.192 60.09 30.192ZM68.3619 30.192C67.4979 30.192 66.7459 29.9787 66.1059 29.552C65.4659 29.1253 65.0125 28.5493 64.7459 27.824L65.9299 27.248C66.1752 27.76 66.5112 28.1653 66.9379 28.464C67.3645 28.7627 67.8392 28.912 68.3619 28.912C68.8312 28.912 69.2205 28.8 69.5299 28.576C69.8392 28.352 69.9939 28.0587 69.9939 27.696C69.9939 27.44 69.9192 27.2373 69.7699 27.088C69.6312 26.928 69.4605 26.8053 69.2579 26.72C69.0552 26.624 68.8685 26.5547 68.6979 26.512L67.4019 26.144C66.6232 25.92 66.0525 25.6 65.6899 25.184C65.3379 24.768 65.1619 24.2827 65.1619 23.728C65.1619 23.216 65.2899 22.7733 65.5459 22.4C65.8125 22.016 66.1699 21.7173 66.6179 21.504C67.0765 21.2907 67.5885 21.184 68.1539 21.184C68.9112 21.184 69.5885 21.376 70.1859 21.76C70.7939 22.144 71.2259 22.6827 71.4819 23.376L70.2659 23.936C70.0739 23.488 69.7859 23.136 69.4019 22.88C69.0179 22.6133 68.5859 22.48 68.1059 22.48C67.6685 22.48 67.3219 22.592 67.0659 22.816C66.8099 23.0293 66.6819 23.3013 66.6819 23.632C66.6819 23.8773 66.7459 24.08 66.8739 24.24C67.0019 24.3893 67.1565 24.5067 67.3379 24.592C67.5192 24.6667 67.6952 24.7307 67.8659 24.784L69.2739 25.2C69.9779 25.4027 70.5219 25.7173 70.9059 26.144C71.3005 26.5707 71.4979 27.0827 71.4979 27.68C71.4979 28.16 71.3645 28.592 71.0979 28.976C70.8312 29.36 70.4632 29.6587 69.9939 29.872C69.5245 30.0853 68.9805 30.192 68.3619 30.192ZM73.5457 30V21.376H75.0337V30H73.5457ZM73.5457 20V18.08H75.0337V20H73.5457ZM81.5546 33.52C80.9466 33.52 80.3813 33.424 79.8586 33.232C79.3466 33.04 78.904 32.7733 78.5306 32.432C78.168 32.1013 77.8906 31.712 77.6986 31.264L79.0906 30.624C79.24 31.0293 79.5226 31.3707 79.9386 31.648C80.3653 31.936 80.8986 32.08 81.5386 32.08C82.0293 32.08 82.472 31.984 82.8666 31.792C83.272 31.6107 83.592 31.3333 83.8266 30.96C84.0613 30.5973 84.1786 30.1547 84.1786 29.632V27.696L84.4506 27.984C84.152 28.5707 83.72 29.0187 83.1546 29.328C82.6 29.6373 81.9866 29.792 81.3146 29.792C80.504 29.792 79.7786 29.6053 79.1386 29.232C78.4986 28.848 77.9973 28.3307 77.6346 27.68C77.272 27.0187 77.0906 26.288 77.0906 25.488C77.0906 24.6773 77.272 23.9467 77.6346 23.296C77.9973 22.6453 78.4933 22.1333 79.1226 21.76C79.7626 21.376 80.488 21.184 81.2986 21.184C81.9706 21.184 82.5786 21.3387 83.1226 21.648C83.6773 21.9467 84.12 22.3627 84.4506 22.896L84.2266 23.296V21.376H85.6826V29.632C85.6826 30.3787 85.5066 31.0453 85.1546 31.632C84.8026 32.2187 84.312 32.6773 83.6826 33.008C83.064 33.3493 82.3546 33.52 81.5546 33.52ZM81.4426 28.352C81.9546 28.352 82.4133 28.224 82.8186 27.968C83.2346 27.712 83.5653 27.3707 83.8106 26.944C84.056 26.5067 84.1786 26.0213 84.1786 25.488C84.1786 24.9653 84.056 24.4853 83.8106 24.048C83.5653 23.6107 83.2346 23.264 82.8186 23.008C82.4133 22.752 81.9546 22.624 81.4426 22.624C80.92 22.624 80.4453 22.752 80.0186 23.008C79.592 23.264 79.256 23.6107 79.0106 24.048C78.776 24.4747 78.6586 24.9547 78.6586 25.488C78.6586 26.0213 78.776 26.5067 79.0106 26.944C79.256 27.3707 79.5866 27.712 80.0026 27.968C80.4293 28.224 80.9093 28.352 81.4426 28.352ZM88.0895 30V21.376H89.5455V23.056L89.3055 22.912C89.5188 22.368 89.8602 21.9467 90.3295 21.648C90.8095 21.3387 91.3695 21.184 92.0095 21.184C92.6282 21.184 93.1775 21.3227 93.6575 21.6C94.1482 21.8773 94.5322 22.2613 94.8095 22.752C95.0975 23.2427 95.2415 23.7973 95.2415 24.416V30H93.7375V24.896C93.7375 24.416 93.6522 24.0107 93.4815 23.68C93.3108 23.3493 93.0655 23.0933 92.7455 22.912C92.4362 22.72 92.0788 22.624 91.6735 22.624C91.2682 22.624 90.9055 22.72 90.5855 22.912C90.2762 23.0933 90.0308 23.3547 89.8495 23.696C89.6682 24.0267 89.5775 24.4267 89.5775 24.896V30H88.0895Z" fill="#287DE8"/>
</svg>
