<svg width="114" height="46" viewBox="0 0 114 46" fill="none" xmlns="http://www.w3.org/2000/svg">
<rect x="0.5" y="0.5" width="113" height="45" rx="4.5" stroke="#287DE8"/>
<path d="M27.4613 15.0783C27.3429 14.9488 27.1755 14.875 27 14.875C26.8245 14.875 26.6571 14.9488 26.5387 15.0783L23.2054 18.7241C22.9725 18.9789 22.9902 19.3742 23.2449 19.6071C23.4997 19.84 23.895 19.8223 24.1279 19.5676L26.375 17.1098V26.3333C26.375 26.6785 26.6548 26.9583 27 26.9583C27.3452 26.9583 27.625 26.6785 27.625 26.3333V17.1098L29.8721 19.5676C30.105 19.8223 30.5003 19.84 30.7551 19.6071C31.0098 19.3742 31.0275 18.9789 30.7946 18.7241L27.4613 15.0783Z" fill="#287DE8"/>
<path d="M20.125 25.5C20.125 25.1548 19.8452 24.875 19.5 24.875C19.1548 24.875 18.875 25.1548 18.875 25.5V25.5457C18.875 26.6854 18.875 27.604 18.9721 28.3265C19.073 29.0765 19.2887 29.7081 19.7903 30.2097C20.2919 30.7113 20.9235 30.9271 21.6735 31.0279C22.396 31.125 23.3146 31.125 24.4543 31.125H29.5457C30.6854 31.125 31.604 31.125 32.3265 31.0279C33.0766 30.9271 33.7081 30.7113 34.2097 30.2097C34.7113 29.7081 34.9271 29.0765 35.0279 28.3265C35.125 27.604 35.125 26.6854 35.125 25.5457V25.5C35.125 25.1548 34.8452 24.875 34.5 24.875C34.1548 24.875 33.875 25.1548 33.875 25.5C33.875 26.6962 33.8737 27.5304 33.789 28.1599C33.7068 28.7714 33.5565 29.0952 33.3258 29.3258C33.0952 29.5565 32.7714 29.7068 32.1599 29.789C31.5304 29.8737 30.6962 29.875 29.5 29.875H24.5C23.3038 29.875 22.4696 29.8737 21.8401 29.789C21.2286 29.7068 20.9048 29.5565 20.6742 29.3258C20.4435 29.0952 20.2932 28.7714 20.211 28.1599C20.1263 27.5304 20.125 26.6962 20.125 25.5Z" fill="#287DE8"/>
<path d="M46.328 30V18.08H54.088V19.52H47.896V23.296H53.768V24.736H47.896V28.56H54.088V30H46.328ZM54.9791 30L58.0031 25.68L54.9951 21.376H56.7871L59.3631 25.12H58.4511L60.9951 21.376H62.8031L59.7951 25.68L62.7871 30H60.9951L58.4511 26.256H59.3471L56.8031 30H54.9791ZM64.227 33.2V21.376H65.683V23.232L65.491 22.864C65.811 22.352 66.2483 21.9467 66.803 21.648C67.3577 21.3387 67.9923 21.184 68.707 21.184C69.5177 21.184 70.243 21.3813 70.883 21.776C71.5337 22.1707 72.0457 22.7093 72.419 23.392C72.7923 24.064 72.979 24.832 72.979 25.696C72.979 26.5387 72.7923 27.3013 72.419 27.984C72.0457 28.6667 71.5337 29.2053 70.883 29.6C70.243 29.9947 69.5123 30.192 68.691 30.192C67.9977 30.192 67.363 30.0373 66.787 29.728C66.2217 29.4187 65.7843 28.9813 65.475 28.416L65.715 28.16V33.2H64.227ZM68.579 28.752C69.123 28.752 69.6083 28.6187 70.035 28.352C70.4617 28.0853 70.7923 27.7227 71.027 27.264C71.2723 26.7947 71.395 26.272 71.395 25.696C71.395 25.0987 71.2723 24.576 71.027 24.128C70.7923 23.6693 70.4617 23.3067 70.035 23.04C69.6083 22.7627 69.123 22.624 68.579 22.624C68.035 22.624 67.5443 22.7573 67.107 23.024C66.6803 23.2907 66.339 23.6587 66.083 24.128C65.8377 24.5867 65.715 25.1093 65.715 25.696C65.715 26.272 65.8377 26.7947 66.083 27.264C66.339 27.7227 66.6803 28.0853 67.107 28.352C67.5443 28.6187 68.035 28.752 68.579 28.752ZM79.1261 30.192C78.2941 30.192 77.5421 30 76.8701 29.616C76.1981 29.2213 75.6648 28.6827 75.2701 28C74.8755 27.3173 74.6781 26.544 74.6781 25.68C74.6781 24.816 74.8701 24.048 75.2541 23.376C75.6488 22.704 76.1821 22.1707 76.8541 21.776C77.5261 21.3813 78.2835 21.184 79.1261 21.184C79.9581 21.184 80.7101 21.3813 81.3821 21.776C82.0541 22.16 82.5821 22.688 82.9661 23.36C83.3608 24.032 83.5581 24.8053 83.5581 25.68C83.5581 26.5547 83.3555 27.3333 82.9501 28.016C82.5448 28.688 82.0061 29.2213 81.3341 29.616C80.6728 30 79.9368 30.192 79.1261 30.192ZM79.1261 28.752C79.6595 28.752 80.1395 28.6187 80.5661 28.352C81.0035 28.0853 81.3448 27.7173 81.5901 27.248C81.8461 26.7787 81.9741 26.256 81.9741 25.68C81.9741 25.0933 81.8461 24.576 81.5901 24.128C81.3448 23.6693 81.0035 23.3067 80.5661 23.04C80.1395 22.7627 79.6595 22.624 79.1261 22.624C78.5821 22.624 78.0915 22.7627 77.6541 23.04C77.2275 23.3067 76.8861 23.6693 76.6301 24.128C76.3741 24.576 76.2461 25.0933 76.2461 25.68C76.2461 26.256 76.3741 26.7787 76.6301 27.248C76.8861 27.7173 77.2275 28.0853 77.6541 28.352C78.0915 28.6187 78.5821 28.752 79.1261 28.752ZM85.5989 30V21.376H87.0549V22.96L86.8949 22.736C87.0975 22.2453 87.4069 21.8827 87.8229 21.648C88.2389 21.4027 88.7455 21.28 89.3429 21.28H89.8709V22.688H89.1189C88.5109 22.688 88.0202 22.88 87.6469 23.264C87.2735 23.6373 87.0869 24.1707 87.0869 24.864V30H85.5989ZM94.8748 30.096C94.0321 30.096 93.3814 29.856 92.9228 29.376C92.4748 28.896 92.2508 28.2187 92.2508 27.344V22.8H90.6828V21.376H91.0028C91.3868 21.376 91.6908 21.2587 91.9148 21.024C92.1388 20.7893 92.2508 20.48 92.2508 20.096V19.392H93.7388V21.376H95.6748V22.8H93.7388V27.296C93.7388 27.584 93.7814 27.8347 93.8668 28.048C93.9628 28.2613 94.1174 28.432 94.3307 28.56C94.5441 28.6773 94.8268 28.736 95.1788 28.736C95.2534 28.736 95.3441 28.7307 95.4508 28.72C95.5681 28.7093 95.6748 28.6987 95.7708 28.688V30C95.6321 30.032 95.4774 30.0533 95.3068 30.064C95.1361 30.0853 94.9921 30.096 94.8748 30.096Z" fill="#287DE8"/>
</svg>
