<svg width="26" height="26" viewBox="0 0 26 26" fill="none" xmlns="http://www.w3.org/2000/svg">
<path fill-rule="evenodd" clip-rule="evenodd" d="M19.5086 3.23592C20.9516 2.41042 22.7499 3.45258 22.7499 5.11658V18.7168C22.7499 20.3797 20.9527 21.4229 19.5086 20.5974L15.1666 18.1166V5.71675L19.5086 3.23592ZM12.9999 6.5H7.58326C6.23997 6.49865 4.94411 6.99647 3.94723 7.89682C2.95034 8.79717 2.32357 10.0358 2.18857 11.3723C2.05357 12.7088 2.41998 14.0477 3.21668 15.1293C4.01337 16.2108 5.18351 16.9577 6.49992 17.225V21.125C6.49992 21.8433 6.78526 22.5322 7.29317 23.0401C7.80109 23.548 8.48996 23.8333 9.20825 23.8333C9.92655 23.8333 10.6154 23.548 11.1233 23.0401C11.6312 22.5322 11.9166 21.8433 11.9166 21.125V17.3333H12.9999V6.5Z" fill="#D40000"/>
</svg>
