<svg width="26" height="26" viewBox="0 0 26 26" fill="none" xmlns="http://www.w3.org/2000/svg">
<path d="M20.1887 16.976L22.0482 11.3975C23.6726 6.52428 24.4848 4.08765 23.1986 2.80145C21.9124 1.51524 19.4758 2.32745 14.6026 3.95186L9.0241 5.81135C5.09092 7.12241 3.12433 7.77794 2.56548 8.73923C2.03384 9.65372 2.03384 10.7832 2.56548 11.6976C3.12433 12.6589 5.09092 13.3145 9.0241 14.6255C9.51154 14.788 10.0599 14.672 10.4249 14.3104L16.3894 8.4012C16.7249 8.06875 17.2664 8.07128 17.5989 8.40683C17.9313 8.74238 17.9288 9.2839 17.5932 9.61634L11.7251 15.4301C11.3228 15.8287 11.1955 16.4387 11.3745 16.976C12.6856 20.9091 13.3411 22.8757 14.3024 23.4346C15.2169 23.9662 16.3464 23.9662 17.2608 23.4346C18.2221 22.8757 18.8777 20.9092 20.1887 16.976Z" fill="#287DE8"/>
</svg>
