<svg width="26" height="26" viewBox="0 0 26 26" fill="none" xmlns="http://www.w3.org/2000/svg">
<path d="M12.1873 2.16666C7.61748 2.17112 5.25303 2.25287 3.753 3.75291C2.25296 5.25295 2.1712 7.6174 2.16675 12.1872H7.48973C7.10951 11.7123 6.82541 11.1521 6.6705 10.5325C6.08739 8.20003 8.20012 6.08731 10.5325 6.67042C11.1522 6.82533 11.7124 7.10942 12.1873 7.48964V2.16666Z" fill="#E528E8"/>
<path d="M2.16675 13.8122C2.1712 18.3821 2.25296 20.7465 3.753 22.2466C5.25303 23.7466 7.61748 23.8284 12.1873 23.8328V15.3004C11.3427 16.9874 9.59819 18.1456 7.58316 18.1456C7.13443 18.1456 6.77066 17.7818 6.77066 17.3331C6.77066 16.8843 7.13443 16.5206 7.58316 16.5206C9.24801 16.5206 10.643 15.365 11.0098 13.8122H2.16675Z" fill="#E528E8"/>
<path d="M13.8123 23.8328C18.3822 23.8284 20.7466 23.7466 22.2467 22.2466C23.7467 20.7465 23.8284 18.3821 23.8329 13.8122H14.9899C15.3567 15.365 16.7516 16.5206 18.4165 16.5206C18.8652 16.5206 19.229 16.8843 19.229 17.3331C19.229 17.7818 18.8652 18.1456 18.4165 18.1456C16.4015 18.1456 14.6569 16.9874 13.8123 15.3004V23.8328Z" fill="#E528E8"/>
<path d="M23.8329 12.1872C23.8284 7.6174 23.7467 5.25295 22.2467 3.75291C20.7466 2.25287 18.3822 2.17112 13.8123 2.16666V7.48964C14.2873 7.10942 14.8475 6.82533 15.4671 6.67042C17.7995 6.08731 19.9123 8.20003 19.3291 10.5325C19.1742 11.1521 18.8901 11.7123 18.5099 12.1872H23.8329Z" fill="#E528E8"/>
<path d="M10.1384 8.2469C11.3426 8.54794 12.1873 9.62987 12.1873 10.8711V12.1872H10.8712C9.62995 12.1872 8.54802 11.3425 8.24698 10.1383C7.9614 8.99603 8.99611 7.96132 10.1384 8.2469Z" fill="#E528E8"/>
<path d="M13.8123 10.8711V12.1872H15.1285C16.3697 12.1872 17.4516 11.3425 17.7527 10.1383C18.0382 8.99603 17.0035 7.96132 15.8612 8.2469C14.6571 8.54794 13.8123 9.62987 13.8123 10.8711Z" fill="#E528E8"/>
</svg>
