<svg width="32" height="32" viewBox="0 0 32 32" fill="none" xmlns="http://www.w3.org/2000/svg">
<path fill-rule="evenodd" clip-rule="evenodd" d="M29.3337 16C29.3337 23.3638 23.3641 29.3333 16.0003 29.3333C8.63653 29.3333 2.66699 23.3638 2.66699 16C2.66699 8.6362 8.63653 2.66666 16.0003 2.66666C23.3641 2.66666 29.3337 8.6362 29.3337 16ZM16.0003 23.6667C16.5526 23.6667 17.0003 23.2189 17.0003 22.6667V14.6667C17.0003 14.1144 16.5526 13.6667 16.0003 13.6667C15.448 13.6667 15.0003 14.1144 15.0003 14.6667V22.6667C15.0003 23.2189 15.448 23.6667 16.0003 23.6667ZM16.0003 9.33333C16.7367 9.33333 17.3337 9.93028 17.3337 10.6667C17.3337 11.403 16.7367 12 16.0003 12C15.2639 12 14.667 11.403 14.667 10.6667C14.667 9.93028 15.2639 9.33333 16.0003 9.33333Z" fill="#287DE8"/>
</svg>
